<?xml version="1.0" encoding="utf-8"?>
<!-- Generator: Adobe Illustrator 22.0.1, SVG Export Plug-In . SVG Version: 6.00 Build 0)  -->
<svg version="1.1" id="Capa_1" xmlns="http://www.w3.org/2000/svg" xmlns:xlink="http://www.w3.org/1999/xlink" x="0px" y="0px"
	 viewBox="0 0 511 511" style="enable-background:new 0 0 511 511;" xml:space="preserve">
<style type="text/css">
	.st0{fill:#FFFFFF;}
</style>
<path class="st0" d="M487.5,144H479V63h8.5c13,0,23.5-10.5,23.5-23.5S500.5,16,487.5,16h-384C72.9,16,48,40.9,48,71.5v64
	c0,16,6.8,30.4,17.6,40.5H7.5c-4.1,0-7.5,3.4-7.5,7.5s3.4,7.5,7.5,7.5H16v97H7.5c-4.1,0-7.5,3.4-7.5,7.5s3.4,7.5,7.5,7.5h50.4
	C28,321.2,8,354,8,391.5C8,448.6,54.4,495,111.5,495h368c13,0,23.5-10.5,23.5-23.5c0-10.3-6.7-19.1-16-22.3V333.8
	c9.3-3.1,16-11.9,16-22.3c0-13-10.5-23.5-23.5-23.5h-17.1c5.3-6.7,8.6-15.3,8.6-24.5v-48c0-9.3-3.2-17.8-8.6-24.5h25.1
	c13,0,23.5-10.5,23.5-23.5S500.5,144,487.5,144z M31,288v-17h392.5c4.1,0,7.5-3.4,7.5-7.5s-3.4-7.5-7.5-7.5H31v-9h392.5
	c4.1,0,7.5-3.4,7.5-7.5s-3.4-7.5-7.5-7.5H31v-9h392.5c4.1,0,7.5-3.4,7.5-7.5s-3.4-7.5-7.5-7.5H31v-17h72.5h328
	c13.5,0,24.5,11,24.5,24.5v48c0,13.5-11,24.5-24.5,24.5h-320H31z M479.5,303c4.7,0,8.5,3.8,8.5,8.5s-3.8,8.5-8.5,8.5h-368
	C72.1,320,40,352.1,40,391.5S72.1,463,111.5,463h368c4.7,0,8.5,3.8,8.5,8.5s-3.8,8.5-8.5,8.5h-368C62.7,480,23,440.3,23,391.5
	S62.7,303,111.5,303h320H479.5z M119.5,367H472v17H119.5c-4.1,0-7.5,3.4-7.5,7.5s3.4,7.5,7.5,7.5H472v17H119.5
	c-4.1,0-7.5,3.4-7.5,7.5s3.4,7.5,7.5,7.5H472v17H111.5c-5.7,0-11.3-0.9-16.5-2.5V337.5c5.2-1.6,10.8-2.5,16.5-2.5H472v17H119.5
	c-4.1,0-7.5,3.4-7.5,7.5S115.4,367,119.5,367z M80,344.6v93.8c-15.1-10.2-25-27.4-25-46.9S64.9,354.8,80,344.6z M487.5,176h-56h-328
	C81.2,176,63,157.8,63,135.5v-64C63,49.2,81.2,31,103.5,31h384c4.7,0,8.5,3.8,8.5,8.5s-3.8,8.5-8.5,8.5h-384
	C90.5,48,80,58.5,80,71.5v64c0,13,10.5,23.5,23.5,23.5h384c4.7,0,8.5,3.8,8.5,8.5S492.2,176,487.5,176z M119.5,95H464v17H119.5
	c-4.1,0-7.5,3.4-7.5,7.5s3.4,7.5,7.5,7.5H464v17H103.5c-4.7,0-8.5-3.8-8.5-8.5v-64c0-4.7,3.8-8.5,8.5-8.5H464v17H119.5
	c-4.1,0-7.5,3.4-7.5,7.5S115.4,95,119.5,95z"/>
</svg>
