<?xml version="1.0" encoding="utf-8"?>
<!-- Generator: Adobe Illustrator 22.0.1, SVG Export Plug-In . SVG Version: 6.00 Build 0)  -->
<svg version="1.1" id="Layer_1" xmlns="http://www.w3.org/2000/svg" xmlns:xlink="http://www.w3.org/1999/xlink" x="0px" y="0px"
	 viewBox="0 0 512 512" style="enable-background:new 0 0 512 512;" xml:space="preserve">
<style type="text/css">
	.st0{fill:#FFFFFF;}
</style>
<g>
	<path class="st0" d="M484.5,75.5h-19V58.2c0-15.2-12.3-27.5-27.5-27.5c-6.2,0-357.4,0-364,0c-15.2,0-27.5,12.3-27.5,27.5v17.4h-19
		C12.3,75.5,0,87.9,0,103v306.6c0,15.2,12.3,27.5,27.5,27.5h116.7v32.5c0,9.7,11.2,15.2,18.9,9.2l12.7-10l10.4,9.1
		c7.6,6.6,19.3,1.2,19.3-8.8v-32h279c15.2,0,27.5-12.3,27.5-27.5V103C512,87.9,499.7,75.5,484.5,75.5z M438,45.7
		c6.9,0,12.5,5.6,12.5,12.5v42.3c-5.1-5.2-49-50.1-53.6-54.8L438,45.7z M386.5,56.5c6.2,6.3,48.2,49.3,53.7,54.9h-52.4
		c-0.7,0-1.3-0.6-1.3-1.3V56.5z M144.2,422.1H27.5c-6.9,0-12.5-5.6-12.5-12.5V103c0-6.9,5.6-12.5,12.5-12.5h19V366
		c0,15.2,12.3,27.5,27.5,27.5h70.2L144.2,422.1z M190.5,461.8l-7-6.1c-4.2-3.7-10.5-3.8-14.9-0.4l-9.5,7.5v-69.3h31.3V461.8z
		 M248.5,422.1h-43v-28.6h43V422.1z M248.5,378.5H74c-6.9,0-12.5-5.6-12.5-12.5V58.1c0-6.9,5.6-12.5,12.5-12.5h174.5V378.5z
		 M497,409.6c0,6.9-5.6,12.5-12.5,12.5h-221v-28.6H438c15.2,0,27.5-12.3,27.5-27.5v-17.9c0-4.1-3.4-7.5-7.5-7.5s-7.5,3.4-7.5,7.5
		V366c0,6.9-5.6,12.5-12.5,12.5H263.5c0-7.1,0-319.8,0-332.9h108v64.5c0,9,7.3,16.3,16.3,16.3h62.8v191.8c0,4.1,3.4,7.5,7.5,7.5
		s7.5-3.4,7.5-7.5V90.5h19c6.9,0,12.5,5.6,12.5,12.5V409.6z"/>
	<path class="st0" d="M93.5,99.9h123c4.1,0,7.5-3.4,7.5-7.5s-3.4-7.5-7.5-7.5h-123c-4.1,0-7.5,3.4-7.5,7.5S89.4,99.9,93.5,99.9z"/>
	<path class="st0" d="M216.5,132.8h-23c-4.1,0-7.5,3.4-7.5,7.5s3.4,7.5,7.5,7.5h23c4.1,0,7.5-3.4,7.5-7.5S220.6,132.8,216.5,132.8z"
		/>
	<path class="st0" d="M93.5,147.8h70c4.1,0,7.5-3.4,7.5-7.5s-3.4-7.5-7.5-7.5h-70c-4.1,0-7.5,3.4-7.5,7.5S89.4,147.8,93.5,147.8z"/>
	<path class="st0" d="M93.5,195.7h123c4.1,0,7.5-3.4,7.5-7.5s-3.4-7.5-7.5-7.5h-123c-4.1,0-7.5,3.4-7.5,7.5S89.4,195.7,93.5,195.7z"
		/>
	<path class="st0" d="M93.5,243.5h123c4.1,0,7.5-3.4,7.5-7.5s-3.4-7.5-7.5-7.5h-123c-4.1,0-7.5,3.4-7.5,7.5S89.4,243.5,93.5,243.5z"
		/>
	<path class="st0" d="M93.5,291.4h23c4.1,0,7.5-3.4,7.5-7.5s-3.4-7.5-7.5-7.5h-23c-4.1,0-7.5,3.4-7.5,7.5S89.4,291.4,93.5,291.4z"/>
	<path class="st0" d="M216.5,276.4h-70c-4.1,0-7.5,3.4-7.5,7.5s3.4,7.5,7.5,7.5h70c4.1,0,7.5-3.4,7.5-7.5S220.6,276.4,216.5,276.4z"
		/>
	<path class="st0" d="M93.5,339.3h123c4.1,0,7.5-3.4,7.5-7.5s-3.4-7.5-7.5-7.5h-123c-4.1,0-7.5,3.4-7.5,7.5S89.4,339.3,93.5,339.3z"
		/>
	<path class="st0" d="M395.3,177.3l8.3-8.3c6.9-6.9,3.6-18.4-5.6-20.9l-89.2-23.9c-9.3-2.5-17.8,6-15.3,15.3l23.9,89.2
		c2.5,9.3,14.1,12.4,20.9,5.6l8.3-8.3l19.2,19.2c8.8,8.8,23.1,8.8,31.8,0l17-17c8.8-8.8,8.8-23,0-31.8L395.3,177.3z M386.9,234.7
		c-2.9,2.9-7.7,2.9-10.6,0l-24.5-24.5c-2.9-2.9-7.7-2.9-10.6,0l-10.5,10.5L309,139.8l80.9,21.7L379.3,172c-2.9,2.9-2.9,7.7,0,10.6
		c26.4,26.4,26.7,25.6,26.7,29.8C406.1,216.5,405,216.6,386.9,234.7L386.9,234.7z"/>
	<g>
		<path class="st0" d="M294.3,285.8v34.3c0,10.4,4,15.6,10.8,15.6c7.1,0,11-5,11-15.6v-34.3h13.5v33.5c0,18.4-9.3,27.2-24.9,27.2
			c-15,0-23.8-8.4-23.8-27.4v-33.3H294.3z"/>
		<path class="st0" d="M341.2,286.7c5-0.8,11.4-1.3,18.1-1.3c11.4,0,18.9,2.1,24.5,6.4c6.2,4.6,10.1,12,10.1,22.5
			c0,11.4-4.2,19.3-9.8,24.2c-6.3,5.2-15.9,7.7-27.6,7.7c-7,0-12-0.4-15.3-0.9V286.7z M354.7,335.3c1.2,0.3,3.1,0.3,4.7,0.3
			c12.3,0.1,20.4-6.6,20.4-20.9c0-12.4-7.3-18.9-18.9-18.9c-2.9,0-5,0.3-6.1,0.5V335.3z"/>
		<path class="st0" d="M402.9,285.8h13.5v48.3h23.7v11.3h-37.2V285.8z"/>
	</g>
</g>
</svg>
