<?xml version="1.0" encoding="utf-8"?>
<!-- Generator: Adobe Illustrator 22.0.1, SVG Export Plug-In . SVG Version: 6.00 Build 0)  -->
<svg version="1.1" id="Capa_1" xmlns="http://www.w3.org/2000/svg" xmlns:xlink="http://www.w3.org/1999/xlink" x="0px" y="0px"
	 viewBox="0 0 396.5 396.5" style="enable-background:new 0 0 396.5 396.5;" xml:space="preserve">
<style type="text/css">
	.st0{fill:#FFFFFF;}
</style>
<g>
	<g>
		<path class="st0" d="M379,23.3H17.5C7.9,23.3,0,31.1,0,40.8v249.3c0,9.7,7.9,17.5,17.5,17.5h123.2v49.6h-27.2c-4.4,0-8,3.6-8,8
			s3.6,8,8,8h156.3c4.4,0,8-3.6,8-8s-3.6-8-8-8h-14.1v-49.6H379c9.7,0,17.5-7.9,17.5-17.5V40.8C396.4,31.1,388.6,23.3,379,23.3z
			 M239.8,357.3h-83v-49.6h83L239.8,357.3L239.8,357.3z M380.5,290.2c0,0.8-0.7,1.5-1.5,1.5H17.5c-0.8,0-1.5-0.7-1.5-1.5V40.8
			c0-0.8,0.7-1.5,1.5-1.5H379c0.8,0,1.5,0.7,1.5,1.5L380.5,290.2L380.5,290.2z"/>
	</g>
</g>
<g>
	<g>
		<path class="st0" d="M302.9,246.2V97.6c0-2.6-1.3-5.1-3.4-6.6l0,0c-15.7-9.8-33.9-14.9-52.4-14.8c-16.7,0.2-33.2,4.4-48,12.2
			c-14.7-8-31.2-12.2-48-12.2c-18.5,0.1-36.7,5.1-52.7,14.4c-2.5,1.4-4.1,4.1-4.1,7v148.6c0,4.4,3.6,8,8,8c1.4,0,2.7-0.4,3.9-1
			c13.4-7.7,28.6-11.8,44.1-12c15.2-0.1,30.2,4.1,43.3,11.9l1.2,0.5h0.6c0.9,0.4,1.9,0.6,2.9,0.6c0.6,0.1,1.3,0.1,1.9,0h0.5l1.3-0.5
			c13.6-7.9,29.1-12.2,44.9-12.3c15.2-0.1,30.2,4.1,43.3,11.9c3.5,2.7,8.5,2,11.2-1.5C302.5,250.2,303.1,248.2,302.9,246.2z
			 M190.2,233.4c-12.7-5.3-26.3-8.1-40-8c-14,0-27.8,2.8-40.6,8.3V102.2c12.6-6.5,26.5-9.9,40.6-10c13.9,0,27.7,3.5,40,10V233.4z
			 M286.9,233.8c-12.7-5.3-26.3-8.1-40-8c-13.9-0.1-27.8,2.6-40.6,8V102.2c12.6-6.6,26.6-10.1,40.8-10.2c13.9,0,27.7,3.4,40,9.9
			L286.9,233.8z"/>
	</g>
</g>
</svg>
