<?xml version="1.0" encoding="utf-8"?>
<!-- Generator: Adobe Illustrator 22.0.1, SVG Export Plug-In . SVG Version: 6.00 Build 0)  -->
<svg version="1.1" id="Layer_1" xmlns="http://www.w3.org/2000/svg" xmlns:xlink="http://www.w3.org/1999/xlink" x="0px" y="0px"
	 viewBox="0 0 339 339" style="enable-background:new 0 0 339 339;" xml:space="preserve">
<style type="text/css">
	.st0{fill:#FFFFFF;}
</style>
<g>
	<path class="st0" d="M43.1,142v22h21.3v-22h12.9v57.2H64.4v-23.9H43.1v23.9H30.2V142H43.1z"/>
	<path class="st0" d="M122.6,175h-21v13.6h23.5v10.6H88.7V142h35.2v10.6h-22.3v11.9h21V175z"/>
	<path class="st0" d="M133.9,142.9c4.8-0.8,10.9-1.3,17.4-1.3c10.9,0,18.1,2,23.5,6.1c5.9,4.4,9.7,11.5,9.7,21.5
		c0,10.9-4,18.5-9.4,23.2c-6,5-15.3,7.4-26.5,7.4c-6.7,0-11.5-0.4-14.7-0.8V142.9z M146.8,189.4c1.1,0.3,3,0.3,4.5,0.3
		c11.8,0.1,19.5-6.4,19.5-20c0-11.9-7-18.2-18.2-18.2c-2.8,0-4.8,0.3-5.9,0.5V189.4z"/>
	<path class="st0" d="M192.9,142.8c3.4-0.6,10.2-1.2,16.7-1.2c7.9,0,12.7,0.8,17,3.2c4,2.1,6.8,6,6.8,11.3c0,5-3,9.7-9.4,12.1v0.2
		c6.5,1.7,11.4,6.7,11.4,14c0,5.3-2.4,9.3-5.9,12.2c-4.2,3.3-11.1,5.2-22.5,5.2c-6.4,0-11.1-0.4-14-0.8V142.8z M205.8,164.7h4.2
		c6.9,0,10.4-2.8,10.4-7c0-4.3-3.3-6.6-9.2-6.6c-2.9,0-4.5,0.2-5.5,0.3V164.7z M205.8,190c1.3,0.2,2.8,0.2,5,0.2
		c5.9,0,11-2.3,11-8.3c0-5.7-5.2-8-11.6-8h-4.4V190z"/>
	<path class="st0" d="M257.2,142v57.2h-12.9V142H257.2z"/>
	<path class="st0" d="M268.4,142.8c3.4-0.6,10.2-1.2,16.7-1.2c7.9,0,12.7,0.8,17,3.2c4,2.1,6.8,6,6.8,11.3c0,5-3,9.7-9.4,12.1v0.2
		c6.5,1.7,11.4,6.7,11.4,14c0,5.3-2.4,9.3-5.9,12.2c-4.2,3.3-11.1,5.2-22.5,5.2c-6.4,0-11.1-0.4-14-0.8V142.8z M281.2,164.7h4.2
		c6.9,0,10.4-2.8,10.4-7c0-4.3-3.3-6.6-9.2-6.6c-2.9,0-4.5,0.2-5.5,0.3V164.7z M281.2,190c1.3,0.2,2.8,0.2,5,0.2
		c5.9,0,11-2.3,11-8.3c0-5.7-5.2-8-11.6-8h-4.4V190z"/>
</g>
<g>
	<path class="st0" d="M169.5,0C76,0,0,76,0,169.5C0,263,76,339,169.5,339S339,263,339,169.5S263,0,169.5,0z M296.1,81H246
		c-3.8-7.4-8.1-14.7-12.9-21.7c-10.6-15.6-23.8-30.3-37.5-42.1C237.1,24.3,272.9,47.9,296.1,81z M177,21.5
		c11.4,8.5,28.3,23.4,43.8,46.2c3,4.4,5.7,8.8,8.3,13.3h-52V21.5z M143.4,17.2c-13.8,11.8-26.9,26.4-37.5,42.1
		c-4.8,7-9.1,14.3-12.9,21.7H42.9C66.1,47.9,102,24.3,143.4,17.2z M162,21.5V81h-52c2.6-4.5,5.3-8.9,8.3-13.3
		C133.7,44.9,150.6,30,162,21.5z M44,259.6h49.2c3.7,7.1,8,14.2,12.7,21c12.5,18.1,25.9,31.6,37.2,41.2
		C102.5,314.7,67.2,291.8,44,259.6z M162,317.6c-16.8-12.3-36.5-31.8-51.6-58H162V317.6z M195.9,321.8c11.3-9.5,24.7-23,37.2-41.2
		c4.7-6.8,8.9-13.8,12.7-21H295C271.8,291.8,236.6,314.7,195.9,321.8z M177,317.6v-58h51.6C213.5,285.7,193.8,305.3,177,317.6z
		 M304.5,244.6h-51.6c5.4-12.9,9.4-26.3,11.8-40.1h-15.3c-2.8,14.5-7.4,27.9-13,40.1H177v-40.1h-15v40.1h-59.4
		c-5.6-12.2-10.2-25.6-13-40.1H74.3c2.4,13.8,6.4,27.2,11.8,40.1H34.5c-11.2-20-18-42.7-19.3-66.8H21v-15h-5.8
		c1-24.1,7.6-46.8,18.5-66.8h52.5c-5.2,12.6-9,25.7-11.5,39h15.2c2.7-13.4,6.8-26.4,12.5-39H162v39h15V96h59.7
		c5.7,12.6,9.9,25.6,12.5,39h15.2c-2.5-13.3-6.3-26.4-11.5-39h52.5c10.9,20,17.4,42.7,18.5,66.8H318v15h5.8
		C322.5,201.9,315.7,224.6,304.5,244.6z"/>
</g>
</svg>
