<?xml version="1.0" encoding="utf-8"?>
<!-- Generator: Adobe Illustrator 22.0.1, SVG Export Plug-In . SVG Version: 6.00 Build 0)  -->
<svg version="1.1" id="Capa_1" xmlns="http://www.w3.org/2000/svg" xmlns:xlink="http://www.w3.org/1999/xlink" x="0px" y="0px"
	 viewBox="0 0 423.9 423.9" style="enable-background:new 0 0 423.9 423.9;" xml:space="preserve">
<style type="text/css">
	.st0{fill:#FFFFFF;}
</style>
<g>
	<g>
		<path class="st0" d="M308.5,172.6c-7.8,0-14.2-6.4-14.2-14.2s6.4-14.2,14.2-14.2v0.1c4.4,0,8-3.6,8-8s-3.6-8-8-8h-176
			c-16.6,0-30.1,13.5-30.2,30.2v217.4c0,11.8,9.6,21.4,21.4,21.4c0.1,0,0.3,0,0.4,0h171.1c11.7,0,21.2-9.5,21.3-21.3V180.6
			C316.5,176.2,312.9,172.6,308.5,172.6z M132.7,144.2l-0.2,0.1h149.4c-1,1.8-1.8,3.8-2.3,5.8h-46.9c-4.4,0-8,3.6-8,8s3.6,8,8,8
			h46.6c0.6,2.3,1.5,4.5,2.6,6.6H132.7c-7.8,0-14.2-6.4-14.2-14.2C118.5,150.6,124.9,144.2,132.7,144.2z M300.5,375.9
			c0,2.9-2.4,5.3-5.3,5.3H124.1c-2.9,0-5.3-2.4-5.3-5.3V185.1c4.4,2.3,9.2,3.5,14.2,3.5l167.5,0.1L300.5,375.9L300.5,375.9z"/>
	</g>
</g>
<g>
	<g>
		<path class="st0" d="M394.2,221.9v-9.1c2.1-100.6-77.8-183.9-178.4-186s-183.9,77.8-186,178.4c-0.1,2.5-0.1,5.1,0,7.6v8.4
			c-20.3,4.4-33.3,24.4-28.9,44.8c3.1,14.5,14.4,25.8,28.9,28.9v1.9c0,8.8,7.2,16,16,16h30.3c8.8,0,16-7.2,16-16v-76
			c0-8.8-7.2-16-16-16H46.2c4.5-91.6,82.4-162.2,173.9-157.7c85.3,4.2,153.5,72.4,157.7,157.7h-29.7c-8.8,0-16,7.2-16,16v76
			c0,8.8,7.2,16,16,16h30c8.8,0,16-7.2,16-16v-1.1c17.4-3.7,29.8-19.1,29.8-36.9C423.9,241,411.5,225.6,394.2,221.9z M29.8,262.8
			c0,0.3,0,0.7,0,1v14.1c-8.1-3.3-13.4-11.2-13.5-19.9l-0.3,0.1c0-8.9,5.5-16.9,13.8-20.2V262.8z M76.1,220.8v76H46v-76L76.1,220.8
			L76.1,220.8z M378.1,288.5v8l-30,0.2v-76h30V288.5z M406.3,266.7c-2.2,5.6-6.6,10-12.3,12.3v-40.5
			C405.3,242.9,410.8,255.6,406.3,266.7z"/>
	</g>
</g>
</svg>
